<svg width="271" height="64" viewBox="0 0 271 64" fill="none" xmlns="http://www.w3.org/2000/svg">
<path d="M253.579 51.1591C251.719 51.1591 250.069 50.8497 248.626 50.2311C247.197 49.5997 246.065 48.6528 245.23 47.3901C244.407 46.1149 243.996 44.5177 243.996 42.5985C243.996 40.9823 244.281 39.6187 244.85 38.5076C245.419 37.3965 246.204 36.4937 247.203 35.7993C248.203 35.1048 249.354 34.5808 250.657 34.2273C251.96 33.8611 253.351 33.6149 254.832 33.4887C256.489 33.3371 257.824 33.1793 258.836 33.0152C259.848 32.8384 260.581 32.5922 261.037 32.2765C261.505 31.9483 261.739 31.4874 261.739 30.894V30.7993C261.739 29.8271 261.404 29.0758 260.733 28.5455C260.063 28.0152 259.158 27.75 258.02 27.75C256.793 27.75 255.806 28.0152 255.059 28.5455C254.313 29.0758 253.839 29.8081 253.636 30.7425L245.078 30.4394C245.331 28.6718 245.982 27.0935 247.032 25.7046C248.095 24.3031 249.55 23.2046 251.397 22.4091C253.257 21.6011 255.489 21.197 258.096 21.197C259.955 21.197 261.669 21.418 263.238 21.8599C264.807 22.2892 266.173 22.9205 267.337 23.7538C268.501 24.5745 269.399 25.5846 270.032 26.7841C270.677 27.9836 271 29.3536 271 30.894V50.6667H262.27V46.6136H262.043C261.524 47.5985 260.86 48.4318 260.05 49.1136C259.253 49.7954 258.311 50.3068 257.223 50.6477C256.147 50.9886 254.933 51.1591 253.579 51.1591ZM256.445 45.0985C257.444 45.0985 258.342 44.8965 259.139 44.4924C259.949 44.0884 260.594 43.5328 261.075 42.8258C261.556 42.1061 261.796 41.2727 261.796 40.3258V37.5606C261.53 37.6995 261.208 37.8258 260.828 37.9394C260.461 38.053 260.056 38.1604 259.614 38.2614C259.171 38.3624 258.715 38.4508 258.247 38.5265C257.779 38.6023 257.33 38.6717 256.9 38.7349C256.027 38.8738 255.281 39.0884 254.661 39.3788C254.054 39.6692 253.586 40.048 253.257 40.5152C252.94 40.9697 252.782 41.5126 252.782 42.1439C252.782 43.1035 253.124 43.8359 253.807 44.3409C254.503 44.846 255.382 45.0985 256.445 45.0985Z" fill="#2B823F"/>
<path d="M224.405 51.1591C222.546 51.1591 220.895 50.8497 219.453 50.2311C218.023 49.5997 216.891 48.6528 216.056 47.3901C215.233 46.1149 214.822 44.5177 214.822 42.5985C214.822 40.9823 215.107 39.6187 215.676 38.5076C216.246 37.3965 217.03 36.4937 218.029 35.7993C219.029 35.1048 220.18 34.5808 221.483 34.2273C222.786 33.8611 224.178 33.6149 225.658 33.4887C227.315 33.3371 228.65 33.1793 229.662 33.0152C230.674 32.8384 231.408 32.5922 231.863 32.2765C232.331 31.9483 232.565 31.4874 232.565 30.894V30.7993C232.565 29.8271 232.23 29.0758 231.559 28.5455C230.889 28.0152 229.984 27.75 228.846 27.75C227.619 27.75 226.632 28.0152 225.886 28.5455C225.139 29.0758 224.665 29.8081 224.462 30.7425L215.904 30.4394C216.157 28.6718 216.808 27.0935 217.858 25.7046C218.921 24.3031 220.376 23.2046 222.223 22.4091C224.083 21.6011 226.316 21.197 228.922 21.197C230.781 21.197 232.496 21.418 234.064 21.8599C235.633 22.2892 236.999 22.9205 238.163 23.7538C239.327 24.5745 240.225 25.5846 240.858 26.7841C241.503 27.9836 241.826 29.3536 241.826 30.894V50.6667H233.097V46.6136H232.869C232.35 47.5985 231.686 48.4318 230.876 49.1136C230.079 49.7954 229.137 50.3068 228.049 50.6477C226.973 50.9886 225.759 51.1591 224.405 51.1591ZM227.271 45.0985C228.27 45.0985 229.168 44.8965 229.965 44.4924C230.775 44.0884 231.42 43.5328 231.901 42.8258C232.382 42.1061 232.622 41.2727 232.622 40.3258V37.5606C232.356 37.6995 232.034 37.8258 231.654 37.9394C231.287 38.053 230.883 38.1604 230.44 38.2614C229.997 38.3624 229.542 38.4508 229.074 38.5265C228.605 38.6023 228.156 38.6717 227.726 38.7349C226.853 38.8738 226.107 39.0884 225.487 39.3788C224.88 39.6692 224.412 40.048 224.083 40.5152C223.766 40.9697 223.608 41.5126 223.608 42.1439C223.608 43.1035 223.95 43.8359 224.633 44.3409C225.329 44.846 226.208 45.0985 227.271 45.0985Z" fill="#2B823F"/>
<path d="M194.791 51.0834C192.64 51.0834 190.685 50.5278 188.927 49.4167C187.168 48.3056 185.764 46.6389 184.714 44.4167C183.664 42.1945 183.139 39.4357 183.139 36.1402C183.139 32.7185 183.683 29.9029 184.771 27.6933C185.859 25.4837 187.282 23.8486 189.041 22.788C190.812 21.7274 192.716 21.1971 194.753 21.1971C196.283 21.1971 197.593 21.4622 198.681 21.9925C199.769 22.5102 200.667 23.1794 201.375 24.0001C202.084 24.8208 202.622 25.6731 202.988 26.5569H203.178V11.8789H212.458V50.6667H203.273V45.9508H202.988C202.596 46.8473 202.04 47.6869 201.319 48.4697C200.597 49.2526 199.693 49.8839 198.605 50.3637C197.53 50.8435 196.258 51.0834 194.791 51.0834ZM198.017 43.8675C199.143 43.8675 200.104 43.5518 200.901 42.9205C201.698 42.2766 202.312 41.3738 202.742 40.2122C203.172 39.0506 203.387 37.6869 203.387 36.1213C203.387 34.5304 203.172 33.1604 202.742 32.0114C202.324 30.8624 201.711 29.9786 200.901 29.3599C200.104 28.7412 199.143 28.4319 198.017 28.4319C196.865 28.4319 195.891 28.7476 195.094 29.3789C194.297 30.0102 193.69 30.9003 193.273 32.0493C192.868 33.1983 192.665 34.5556 192.665 36.1213C192.665 37.6869 192.874 39.0506 193.292 40.2122C193.709 41.3738 194.31 42.2766 195.094 42.9205C195.891 43.5518 196.865 43.8675 198.017 43.8675Z" fill="#2B823F"/>
<path d="M152.939 51.2159C149.891 51.2159 147.259 50.6161 145.045 49.4167C142.844 48.2045 141.149 46.4811 139.96 44.2462C138.783 41.9987 138.195 39.3283 138.195 36.2349C138.195 33.2298 138.789 30.6036 139.979 28.3561C141.168 26.096 142.844 24.341 145.007 23.091C147.171 21.8283 149.72 21.197 152.655 21.197C154.73 21.197 156.627 21.519 158.348 22.1629C160.068 22.8069 161.555 23.7601 162.807 25.0228C164.06 26.2854 165.034 27.8447 165.73 29.7008C166.425 31.5442 166.773 33.6591 166.773 36.0455V38.3561H141.44V32.9773H158.139C158.126 31.9925 157.892 31.1149 157.437 30.3447C156.981 29.5745 156.355 28.9748 155.558 28.5455C154.774 28.1036 153.869 27.8826 152.845 27.8826C151.807 27.8826 150.877 28.1162 150.055 28.5834C149.233 29.0379 148.581 29.6629 148.101 30.4584C147.62 31.2412 147.367 32.1313 147.341 33.1288V38.6023C147.341 39.7892 147.575 40.8308 148.044 41.7273C148.512 42.6111 149.176 43.2992 150.036 43.7917C150.896 44.2841 151.921 44.5303 153.11 44.5303C153.933 44.5303 154.679 44.4167 155.349 44.1894C156.02 43.9621 156.596 43.6275 157.076 43.1856C157.557 42.7437 157.918 42.2008 158.158 41.5568L166.678 41.803C166.324 43.7096 165.546 45.3699 164.344 46.7841C163.155 48.1856 161.593 49.2778 159.657 50.0606C157.722 50.8308 155.482 51.2159 152.939 51.2159Z" fill="#2B823F"/>
<path d="M122.879 51.2159C119.83 51.2159 117.199 50.6161 114.985 49.4167C112.783 48.2045 111.088 46.4811 109.899 44.2462C108.723 41.9987 108.134 39.3283 108.134 36.2349C108.134 33.2298 108.729 30.6036 109.918 28.3561C111.107 26.096 112.783 24.341 114.947 23.091C117.11 21.8283 119.659 21.197 122.594 21.197C124.669 21.197 126.567 21.519 128.287 22.1629C130.008 22.8069 131.494 23.7601 132.747 25.0228C133.999 26.2854 134.973 27.8447 135.669 29.7008C136.365 31.5442 136.713 33.6591 136.713 36.0455V38.3561H111.379V32.9773H128.078C128.066 31.9925 127.832 31.1149 127.376 30.3447C126.921 29.5745 126.295 28.9748 125.498 28.5455C124.713 28.1036 123.809 27.8826 122.784 27.8826C121.747 27.8826 120.817 28.1162 119.995 28.5834C119.172 29.0379 118.521 29.6629 118.04 30.4584C117.559 31.2412 117.306 32.1313 117.281 33.1288V38.6023C117.281 39.7892 117.515 40.8308 117.983 41.7273C118.451 42.6111 119.115 43.2992 119.976 43.7917C120.836 44.2841 121.861 44.5303 123.05 44.5303C123.872 44.5303 124.618 44.4167 125.289 44.1894C125.959 43.9621 126.535 43.6275 127.016 43.1856C127.497 42.7437 127.857 42.2008 128.097 41.5568L136.618 41.803C136.264 43.7096 135.486 45.3699 134.284 46.7841C133.095 48.1856 131.532 49.2778 129.597 50.0606C127.661 50.8308 125.422 51.2159 122.879 51.2159Z" fill="#2B823F"/>
<path d="M86.1716 61.5758C85.0583 61.5758 84.0083 61.4875 83.0215 61.3107C82.0348 61.1466 81.1871 60.9256 80.4787 60.6478L82.5281 53.9243C83.439 54.2274 84.2613 54.4041 84.9951 54.4547C85.7415 54.5052 86.3804 54.3852 86.9117 54.0948C87.4557 53.817 87.8732 53.3183 88.1641 52.5986L88.5247 51.7274L78.1636 21.5759H87.8795L93.2498 42.3335H93.5534L98.9997 21.5759H108.773L97.7852 53.4509C97.2538 55.0418 96.5011 56.4433 95.527 57.6554C94.5655 58.8801 93.3194 59.8397 91.7886 60.5342C90.2705 61.2286 88.3982 61.5758 86.1716 61.5758Z" fill="#2B823F"/>
<path d="M180.869 32.4442C182.481 35.3912 182.071 41.1942 179.086 42.6648C175.846 44.2168 170.18 42.6648 167.86 39.1156C171.071 39.1093 173.082 38.5234 175.525 37.7776C178.196 36.4426 179.947 34.6444 180.869 32.4442Z" fill="#29813F"/>
<path d="M58.2584 30.3381C58.2584 29.845 58.3033 29.4864 57.9894 29.083C57.4513 28.3659 56.8236 27.6935 56.1958 27.066C55.2093 26.1695 53.909 25.4523 52.7431 24.8696C50.1424 23.5697 47.3624 22.6733 44.5375 22.0457C38.6186 20.7459 32.4307 20.5218 26.3774 20.7907C23.9112 20.9252 21.445 21.0596 19.0236 21.5079C18.082 21.6872 17.1404 21.8665 16.2436 22.1802C15.2571 22.494 14.2258 22.8526 13.4187 23.4801C13.1496 23.6594 12.9254 23.8835 12.7012 24.1076C12.5219 24.3317 12.3425 24.6007 12.208 24.8696C12.0735 25.0937 11.8941 25.3179 11.8044 25.5868C11.7148 25.8109 11.6699 25.9902 11.6699 26.1695C11.6699 26.3936 11.7596 26.5729 11.7596 26.7522C11.7596 26.797 13.1496 26.9315 13.2842 26.9763C13.8222 27.066 14.3603 27.1108 14.8984 27.1556C16.8713 27.3797 18.8891 27.559 20.8621 27.7383C24.9873 28.0969 29.1574 28.5003 33.3275 28.8589C37.3183 29.2175 41.2642 29.5313 45.2549 29.9347C49.2905 30.3381 53.2812 30.876 57.3616 30.7863C57.5858 30.7863 57.8549 30.7863 58.0791 30.7863C58.3929 30.7863 58.2584 30.6519 58.2584 30.3381ZM22.2863 24.4446C21.6137 24.8481 21.3949 24.8891 20.7276 25.4972C19.6066 26.6626 17.6336 26.035 16.1539 25.9006C15.9297 25.9006 15.7055 25.8557 15.4365 25.8109C15.1674 25.7661 14.719 25.8557 14.7639 25.5868C14.7639 25.2282 14.8535 24.9593 14.9881 24.6007C15.1674 24.1973 15.8849 24.018 16.2884 23.8387C16.8265 23.6146 17.3646 23.4353 17.9475 23.3008C20.055 22.7181 22.2969 22.3595 24.4941 22.4043C24.5838 22.4043 24.6735 22.4043 24.7631 22.4043C23.9112 22.987 23.1778 23.91 22.2863 24.4446Z" fill="#29813F"/>
<path d="M12.1204 9.05434C9.83361 8.91987 7.81582 6.72352 8.04002 4.43752C8.30906 1.97223 10.8201 0.224117 13.1518 0C12.255 1.43435 10.7752 2.64458 10.3268 4.34788C9.83361 6.09599 11.1788 7.70964 12.1204 9.05434Z" fill="#29813F"/>
<path d="M14.5391 18.4143C15.7497 15.456 17.8124 12.9459 19.0679 9.98751C19.7405 8.41869 19.9647 6.84987 18.4401 5.77411C17.2743 4.92246 15.8843 4.47423 14.5839 3.98117C16.1981 3.30882 18.3056 3.26399 19.9198 3.98117C21.8479 4.83282 22.9241 6.80505 22.6551 8.86693C22.386 11.1529 20.996 13.2148 19.4266 14.8733C17.9917 16.3076 16.3327 17.5627 14.5391 18.4143Z" fill="#29813F"/>
<path d="M7.41057 29.8899C3.15079 29.6658 -1.33318 25.6765 0.370728 21.1494C1.8056 17.3394 6.46893 15.0534 10.2355 14.5603C8.12801 17.0256 5.03406 18.8634 3.50951 21.8217C1.89528 25.049 5.34794 27.8729 7.41057 29.8899Z" fill="#29813F"/>
<path d="M40.906 20.0735L32.3864 19.2219C31.8484 19.1771 31.4448 18.684 31.5345 18.1461L31.8484 14.9188C31.8932 14.381 32.3864 13.9775 32.9245 14.0672L41.4441 14.9188C41.9821 14.9637 42.3857 15.4567 42.296 15.9946L41.9821 19.2219C41.9373 19.7598 41.4441 20.1184 40.906 20.0735Z" fill="#2B823F"/>
<path d="M64.1783 38.4058L64.0886 37.4645C63.9541 36.2991 62.9228 35.4474 61.7569 35.5819L56.5107 36.1198C56.4658 35.313 55.8381 34.6406 55.031 34.6406H13.1506C12.3435 34.6406 11.6709 35.313 11.6709 36.1646V36.9714L6.73855 36.4784C5.57271 36.3439 4.5414 37.1956 4.40688 38.361L4.3172 39.3023C4.18268 40.4677 5.03464 41.4986 6.20047 41.6331L11.6709 42.2158V43.1123V44.2777V56.8731C11.6709 60.8175 13.9578 64 16.7827 64H51.399C54.2239 64 56.5107 60.8175 56.5107 56.8731V44.2777V43.1123V41.3193L62.2502 40.7366C63.416 40.647 64.268 39.5712 64.1783 38.4058ZM24.8538 60.5934H18.8004C18.7556 60.5934 18.7108 60.5934 18.6659 60.5934H18.5762C16.7378 60.5934 15.2581 58.7557 15.2581 56.4697V44.0984C15.2581 43.9639 15.2581 43.8743 15.2581 43.7398V41.0952C15.2581 40.4677 15.7962 39.9298 16.4239 39.9298H18.5762H18.6659H18.8004H23.1051H24.8538V60.5934Z" fill="#2B823F"/>
</svg>
