<svg width="158" height="38" viewBox="0 0 158 38" fill="none" xmlns="http://www.w3.org/2000/svg">
<path d="M147.843 30.3757C146.759 30.3757 145.796 30.192 144.955 29.8246C144.122 29.4498 143.462 28.8875 142.975 28.1379C142.496 27.3807 142.256 26.4323 142.256 25.2928C142.256 24.3332 142.422 23.5236 142.754 22.8638C143.086 22.2041 143.543 21.6681 144.126 21.2558C144.708 20.8434 145.38 20.5323 146.139 20.3224C146.899 20.105 147.71 19.9588 148.573 19.8839C149.539 19.7939 150.318 19.7002 150.908 19.6027C151.498 19.4978 151.926 19.3516 152.191 19.1642C152.464 18.9692 152.6 18.6956 152.6 18.3433V18.287C152.6 17.7098 152.405 17.2637 152.014 16.9488C151.623 16.634 151.096 16.4765 150.432 16.4765C149.717 16.4765 149.141 16.634 148.706 16.9488C148.271 17.2637 147.994 17.6985 147.876 18.2533L142.886 18.0734C143.034 17.0238 143.414 16.0867 144.026 15.2621C144.646 14.4299 145.494 13.7777 146.571 13.3054C147.655 12.8256 148.957 12.5857 150.476 12.5857C151.56 12.5857 152.56 12.7169 153.474 12.9793C154.389 13.2342 155.186 13.609 155.864 14.1038C156.543 14.5911 157.067 15.1908 157.435 15.903C157.811 16.6152 158 17.4286 158 18.3433V30.0833H152.91V27.6768H152.777C152.475 28.2616 152.088 28.7563 151.616 29.1612C151.151 29.566 150.602 29.8696 149.967 30.072C149.34 30.2745 148.632 30.3757 147.843 30.3757ZM149.514 26.7772C150.096 26.7772 150.62 26.6572 151.085 26.4173C151.557 26.1774 151.933 25.8476 152.213 25.4278C152.494 25.0004 152.634 24.5056 152.634 23.9434V22.3016C152.479 22.384 152.291 22.459 152.069 22.5265C151.855 22.594 151.619 22.6577 151.361 22.7177C151.103 22.7776 150.838 22.8301 150.565 22.8751C150.292 22.9201 150.03 22.9613 149.779 22.9988C149.27 23.0813 148.835 23.2087 148.474 23.3811C148.12 23.5535 147.847 23.7785 147.655 24.0558C147.471 24.3257 147.378 24.6481 147.378 25.0229C147.378 25.5927 147.578 26.0275 147.976 26.3274C148.381 26.6272 148.894 26.7772 149.514 26.7772Z" fill="#2B823F"/>
<path d="M130.834 30.3757C129.75 30.3757 128.787 30.192 127.947 29.8246C127.113 29.4498 126.453 28.8875 125.966 28.1379C125.487 27.3807 125.247 26.4323 125.247 25.2928C125.247 24.3332 125.413 23.5236 125.745 22.8638C126.077 22.2041 126.534 21.6681 127.117 21.2558C127.7 20.8434 128.371 20.5323 129.13 20.3224C129.89 20.105 130.701 19.9588 131.564 19.8839C132.531 19.7939 133.309 19.7002 133.899 19.6027C134.489 19.4978 134.917 19.3516 135.182 19.1642C135.455 18.9692 135.592 18.6956 135.592 18.3433V18.287C135.592 17.7098 135.396 17.2637 135.005 16.9488C134.614 16.634 134.087 16.4765 133.423 16.4765C132.708 16.4765 132.132 16.634 131.697 16.9488C131.262 17.2637 130.985 17.6985 130.867 18.2533L125.878 18.0734C126.025 17.0238 126.405 16.0867 127.017 15.2621C127.637 14.4299 128.485 13.7777 129.562 13.3054C130.646 12.8256 131.948 12.5857 133.467 12.5857C134.552 12.5857 135.551 12.7169 136.466 12.9793C137.38 13.2342 138.177 13.609 138.855 14.1038C139.534 14.5911 140.058 15.1908 140.427 15.903C140.803 16.6152 140.991 17.4286 140.991 18.3433V30.0833H135.901V27.6768H135.769C135.466 28.2616 135.079 28.7563 134.607 29.1612C134.142 29.566 133.593 29.8696 132.958 30.072C132.332 30.2745 131.623 30.3757 130.834 30.3757ZM132.505 26.7772C133.088 26.7772 133.611 26.6572 134.076 26.4173C134.548 26.1774 134.924 25.8476 135.204 25.4278C135.485 25.0004 135.625 24.5056 135.625 23.9434V22.3016C135.47 22.384 135.282 22.459 135.061 22.5265C134.847 22.594 134.611 22.6577 134.353 22.7177C134.094 22.7776 133.829 22.8301 133.556 22.8751C133.283 22.9201 133.021 22.9613 132.77 22.9988C132.261 23.0813 131.826 23.2087 131.465 23.3811C131.111 23.5535 130.838 23.7785 130.646 24.0558C130.462 24.3257 130.37 24.6481 130.37 25.0229C130.37 25.5927 130.569 26.0275 130.967 26.3274C131.373 26.6272 131.885 26.7772 132.505 26.7772Z" fill="#2B823F"/>
<path d="M113.568 30.3308C112.314 30.3308 111.174 30.0009 110.149 29.3412C109.124 28.6814 108.305 27.6919 107.693 26.3724C107.081 25.053 106.774 23.4149 106.774 21.4583C106.774 19.4266 107.092 17.7548 107.726 16.4429C108.36 15.1309 109.19 14.1601 110.215 13.5304C111.248 12.9006 112.358 12.5858 113.545 12.5858C114.438 12.5858 115.201 12.7432 115.836 13.0581C116.47 13.3654 116.994 13.7628 117.407 14.2501C117.82 14.7373 118.133 15.2434 118.347 15.7682H118.458V7.0531H123.868V30.0834H118.513V27.2833H118.347C118.118 27.8156 117.794 28.3141 117.373 28.7789C116.953 29.2437 116.426 29.6186 115.791 29.9034C115.164 30.1883 114.423 30.3308 113.568 30.3308ZM115.448 26.0463C116.105 26.0463 116.665 25.8589 117.13 25.4841C117.595 25.1017 117.952 24.5657 118.203 23.876C118.454 23.1863 118.579 22.3766 118.579 21.447C118.579 20.5024 118.454 19.689 118.203 19.0068C117.96 18.3246 117.602 17.7998 117.13 17.4325C116.665 17.0651 116.105 16.8814 115.448 16.8814C114.777 16.8814 114.209 17.0689 113.745 17.4437C113.28 17.8185 112.926 18.3471 112.682 19.0293C112.446 19.7115 112.328 20.5174 112.328 21.447C112.328 22.3766 112.45 23.1863 112.694 23.876C112.937 24.5657 113.287 25.1017 113.745 25.4841C114.209 25.8589 114.777 26.0463 115.448 26.0463Z" fill="#2B823F"/>
<path d="M89.1678 30.4094C87.3902 30.4094 85.8561 30.0533 84.5653 29.3411C83.2819 28.6214 82.2935 27.5981 81.6002 26.2712C80.9143 24.9367 80.5713 23.3511 80.5713 21.5144C80.5713 19.7302 80.918 18.1708 81.6113 16.8364C82.3046 15.4945 83.2819 14.4524 84.5432 13.7102C85.8044 12.9605 87.2907 12.5857 89.0019 12.5857C90.2115 12.5857 91.3179 12.7769 92.321 13.1592C93.3241 13.5415 94.1907 14.1075 94.921 14.8572C95.6512 15.6069 96.2191 16.5328 96.6248 17.6348C97.0304 18.7293 97.2333 19.9851 97.2333 21.402V22.7739H82.4632V19.5802H92.1993C92.1919 18.9955 92.0554 18.4745 91.7899 18.0171C91.5244 17.5598 91.1593 17.2037 90.6946 16.9488C90.2373 16.6865 89.7099 16.5553 89.1125 16.5553C88.5077 16.5553 87.9656 16.694 87.4861 16.9713C87.0067 17.2412 86.6268 17.6123 86.3466 18.0846C86.0663 18.5494 85.9188 19.0779 85.904 19.6702V22.9201C85.904 23.6248 86.0405 24.2433 86.3134 24.7755C86.5863 25.3003 86.9735 25.7089 87.4751 26.0013C87.9766 26.2936 88.5741 26.4398 89.2674 26.4398C89.7468 26.4398 90.182 26.3724 90.5729 26.2374C90.9638 26.1025 91.2994 25.9038 91.5797 25.6414C91.86 25.379 92.0702 25.0567 92.2103 24.6743L97.178 24.8205C96.9714 25.9525 96.5178 26.9384 95.8171 27.778C95.1238 28.6102 94.2129 29.2586 93.0844 29.7234C91.9559 30.1807 90.6504 30.4094 89.1678 30.4094Z" fill="#2B823F"/>
<path d="M71.6414 30.4094C69.8639 30.4094 68.3297 30.0533 67.0389 29.3411C65.7555 28.6214 64.7672 27.5981 64.0738 26.2712C63.3879 24.9367 63.0449 23.3511 63.0449 21.5144C63.0449 19.7302 63.3916 18.1708 64.0849 16.8364C64.7782 15.4945 65.7555 14.4524 67.0168 13.7102C68.2781 12.9605 69.7643 12.5857 71.4755 12.5857C72.6851 12.5857 73.7915 12.7769 74.7946 13.1592C75.7977 13.5415 76.6644 14.1075 77.3946 14.8572C78.1248 15.6069 78.6927 16.5328 79.0984 17.6348C79.5041 18.7293 79.7069 19.9851 79.7069 21.402V22.7739H64.9368V19.5802H74.6729C74.6655 18.9955 74.5291 18.4745 74.2636 18.0171C73.998 17.5598 73.6329 17.2037 73.1682 16.9488C72.7109 16.6865 72.1836 16.5553 71.5861 16.5553C70.9813 16.5553 70.4392 16.694 69.9598 16.9713C69.4803 17.2412 69.1005 17.6123 68.8202 18.0846C68.5399 18.5494 68.3924 19.0779 68.3776 19.6702V22.9201C68.3776 23.6248 68.5141 24.2433 68.787 24.7755C69.0599 25.3003 69.4471 25.7089 69.9487 26.0013C70.4502 26.2936 71.0477 26.4398 71.741 26.4398C72.2204 26.4398 72.6556 26.3724 73.0465 26.2374C73.4375 26.1025 73.7731 25.9038 74.0533 25.6414C74.3336 25.379 74.5438 25.0567 74.684 24.6743L79.6516 24.8205C79.4451 25.9525 78.9915 26.9384 78.2908 27.778C77.5974 28.6102 76.6865 29.2586 75.558 29.7234C74.4295 30.1807 73.124 30.4094 71.6414 30.4094Z" fill="#2B823F"/>
<path d="M50.2402 36.5606C49.5911 36.5606 48.9789 36.5081 48.4036 36.4032C47.8283 36.3057 47.3341 36.1745 46.9211 36.0096L48.1159 32.0175C48.647 32.1975 49.1264 32.3024 49.5542 32.3324C49.9894 32.3624 50.3619 32.2912 50.6717 32.1187C50.9888 31.9538 51.2322 31.6577 51.4019 31.2304L51.6121 30.7131L45.5713 12.8107H51.2359L54.367 25.1355H54.544L57.7193 12.8107H63.4171L57.0112 31.7364C56.7014 32.681 56.2625 33.5132 55.6946 34.2329C55.134 34.96 54.4075 35.5298 53.5151 35.9421C52.63 36.3545 51.5383 36.5606 50.2402 36.5606Z" fill="#2B823F"/>
<path d="M105.451 19.2638C106.39 21.0136 106.152 24.4591 104.412 25.3323C102.522 26.2538 99.219 25.3323 97.8663 23.2249C99.7382 23.2212 100.911 22.8733 102.335 22.4305C103.892 21.6378 104.913 20.5701 105.451 19.2638Z" fill="#29813F"/>
<path d="M33.966 18.0133C33.966 17.7205 33.9922 17.5076 33.8092 17.2681C33.4954 16.8423 33.1294 16.4431 32.7635 16.0705C32.1883 15.5382 31.4302 15.1124 30.7505 14.7664C29.2342 13.9946 27.6133 13.4623 25.9663 13.0897C22.5155 12.3179 18.9078 12.1848 15.3785 12.3445C13.9407 12.4244 12.5028 12.5042 11.0911 12.7703C10.5421 12.8768 9.99313 12.9832 9.47027 13.1695C8.89513 13.3558 8.29385 13.5688 7.82328 13.9414C7.66642 14.0478 7.53571 14.1809 7.40499 14.3139C7.30042 14.447 7.19585 14.6067 7.11742 14.7664C7.039 14.8995 6.93442 15.0325 6.88214 15.1922C6.82985 15.3253 6.80371 15.4317 6.80371 15.5382C6.80371 15.6713 6.856 15.7777 6.856 15.8842C6.856 15.9108 7.66642 15.9906 7.74485 16.0172C8.05856 16.0705 8.37228 16.0971 8.68599 16.1237C9.83627 16.2568 11.0127 16.3632 12.163 16.4697C14.5681 16.6826 16.9994 16.9221 19.4307 17.135C21.7574 17.3479 24.0579 17.5342 26.3846 17.7738C28.7375 18.0133 31.0642 18.3326 33.4432 18.2794C33.5739 18.2794 33.7307 18.2794 33.8614 18.2794C34.0444 18.2794 33.966 18.1996 33.966 18.0133ZM12.9934 14.514C12.6012 14.7536 12.4736 14.7779 12.0845 15.139C11.431 15.8309 10.2807 15.4583 9.41798 15.3785C9.28727 15.3785 9.15656 15.3519 8.9997 15.3253C8.84284 15.2987 8.58142 15.3519 8.60756 15.1922C8.60756 14.9793 8.65985 14.8196 8.73827 14.6067C8.84285 14.3672 9.26113 14.2607 9.49641 14.1543C9.81013 14.0212 10.1238 13.9147 10.4637 13.8349C11.6924 13.4889 12.9995 13.276 14.2805 13.3026C14.3328 13.3026 14.3851 13.3026 14.4374 13.3026C13.9407 13.6486 13.5131 14.1966 12.9934 14.514Z" fill="#29813F"/>
<path d="M7.06668 5.37601C5.7334 5.29617 4.55697 3.99209 4.68769 2.63478C4.84454 1.17101 6.30854 0.13307 7.66796 0C7.1451 0.851646 6.28239 1.57022 6.02097 2.58155C5.7334 3.61949 6.51768 4.5776 7.06668 5.37601Z" fill="#29813F"/>
<path d="M8.47656 10.9335C9.18242 9.17696 10.385 7.68658 11.117 5.93006C11.5091 4.99857 11.6398 4.06708 10.751 3.42835C10.0713 2.92268 9.26084 2.65654 8.5027 2.36379C9.44384 1.96458 10.6726 1.93797 11.6137 2.36379C12.7378 2.86945 13.3653 4.04047 13.2084 5.26471C13.0515 6.62202 12.2411 7.84626 11.3261 8.83097C10.4896 9.68262 9.52227 10.4278 8.47656 10.9335Z" fill="#29813F"/>
<path d="M4.32055 17.7471C1.83699 17.614 -0.77728 15.2454 0.216144 12.5574C1.05271 10.2952 3.77156 8.93789 5.96755 8.64514C4.73884 10.1089 2.93499 11.2001 2.04614 12.9566C1.105 14.8728 3.11799 16.5495 4.32055 17.7471Z" fill="#29813F"/>
<path d="M23.8491 11.9187L18.8819 11.413C18.5682 11.3864 18.3329 11.0936 18.3852 10.7743L18.5682 8.85806C18.5944 8.53869 18.8819 8.29917 19.1956 8.3524L24.1628 8.85806C24.4765 8.88468 24.7118 9.17743 24.6595 9.4968L24.4765 11.413C24.4503 11.7324 24.1628 11.9453 23.8491 11.9187Z" fill="#2B823F"/>
<path d="M37.4175 22.8034L37.3652 22.2445C37.2868 21.5526 36.6855 21.0469 36.0058 21.1268L32.9471 21.4461C32.9209 20.9671 32.5549 20.5679 32.0844 20.5679H7.66706C7.19649 20.5679 6.80435 20.9671 6.80435 21.4727V21.9518L3.92865 21.659C3.24894 21.5792 2.64765 22.0849 2.56922 22.7768L2.51694 23.3357C2.43851 24.0277 2.93522 24.6398 3.61493 24.7196L6.80435 25.0656V25.5979V26.2899V33.7684C6.80435 36.1104 8.13763 38 9.78462 38H29.9668C31.6138 38 32.9471 36.1104 32.9471 33.7684V26.2899V25.5979V24.5333L36.2934 24.1874C36.9731 24.1341 37.4698 23.4954 37.4175 22.8034ZM14.4903 35.9773H10.961C10.9349 35.9773 10.9088 35.9773 10.8826 35.9773H10.8303C9.75848 35.9773 8.89577 34.8862 8.89577 33.5289V26.1834C8.89577 26.1036 8.89577 26.0503 8.89577 25.9705V24.4003C8.89577 24.0277 9.20948 23.7083 9.57548 23.7083H10.8303H10.8826H10.961H13.4707H14.4903V35.9773Z" fill="#2B823F"/>
</svg>
