<svg width="24" height="24" viewBox="0 0 24 24" fill="none" xmlns="http://www.w3.org/2000/svg">
<path d="M18 12C18 13.5913 17.3679 15.1174 16.2426 16.2426C15.1174 17.3679 13.5913 18 12 18C10.4087 18 8.88258 17.3679 7.75736 16.2426C6.63214 15.1174 6 13.5913 6 12C6 10.4087 6.63214 8.88258 7.75736 7.75736C8.88258 6.63214 10.4087 6 12 6C13.5913 6 15.1174 6.63214 16.2426 7.75736C17.3679 8.88258 18 10.4087 18 12V12ZM12.375 9.375C12.375 9.27554 12.3355 9.18016 12.2652 9.10984C12.1948 9.03951 12.0995 9 12 9C11.9005 9 11.8052 9.03951 11.7348 9.10984C11.6645 9.18016 11.625 9.27554 11.625 9.375V11.625H9.375C9.27554 11.625 9.18016 11.6645 9.10984 11.7348C9.03951 11.8052 9 11.9005 9 12C9 12.0995 9.03951 12.1948 9.10984 12.2652C9.18016 12.3355 9.27554 12.375 9.375 12.375H11.625V14.625C11.625 14.7245 11.6645 14.8198 11.7348 14.8902C11.8052 14.9605 11.9005 15 12 15C12.0995 15 12.1948 14.9605 12.2652 14.8902C12.3355 14.8198 12.375 14.7245 12.375 14.625V12.375H14.625C14.7245 12.375 14.8198 12.3355 14.8902 12.2652C14.9605 12.1948 15 12.0995 15 12C15 11.9005 14.9605 11.8052 14.8902 11.7348C14.8198 11.6645 14.7245 11.625 14.625 11.625H12.375V9.375Z" fill="#2DB100"/>
</svg>
