<svg width="32" height="32" viewBox="0 0 32 32" fill="none" xmlns="http://www.w3.org/2000/svg">
<path d="M13.8125 13.8125C13.9285 13.8125 14.0398 13.8586 14.1219 13.9406C14.2039 14.0227 14.25 14.134 14.25 14.25V19.5C14.25 19.616 14.2039 19.7273 14.1219 19.8094C14.0398 19.8914 13.9285 19.9375 13.8125 19.9375C13.6965 19.9375 13.5852 19.8914 13.5031 19.8094C13.4211 19.7273 13.375 19.616 13.375 19.5V14.25C13.375 14.134 13.4211 14.0227 13.5031 13.9406C13.5852 13.8586 13.6965 13.8125 13.8125 13.8125V13.8125ZM16 13.8125C16.116 13.8125 16.2273 13.8586 16.3094 13.9406C16.3914 14.0227 16.4375 14.134 16.4375 14.25V19.5C16.4375 19.616 16.3914 19.7273 16.3094 19.8094C16.2273 19.8914 16.116 19.9375 16 19.9375C15.884 19.9375 15.7727 19.8914 15.6906 19.8094C15.6086 19.7273 15.5625 19.616 15.5625 19.5V14.25C15.5625 14.134 15.6086 14.0227 15.6906 13.9406C15.7727 13.8586 15.884 13.8125 16 13.8125V13.8125ZM18.625 14.25C18.625 14.134 18.5789 14.0227 18.4969 13.9406C18.4148 13.8586 18.3035 13.8125 18.1875 13.8125C18.0715 13.8125 17.9602 13.8586 17.8781 13.9406C17.7961 14.0227 17.75 14.134 17.75 14.25V19.5C17.75 19.616 17.7961 19.7273 17.8781 19.8094C17.9602 19.8914 18.0715 19.9375 18.1875 19.9375C18.3035 19.9375 18.4148 19.8914 18.4969 19.8094C18.5789 19.7273 18.625 19.616 18.625 19.5V14.25Z" fill="#2DB100"/>
<path fill-rule="evenodd" clip-rule="evenodd" d="M21.6875 11.625C21.6875 11.8571 21.5953 12.0796 21.4312 12.2437C21.2671 12.4078 21.0446 12.5 20.8125 12.5H20.375V20.375C20.375 20.8391 20.1906 21.2842 19.8624 21.6124C19.5342 21.9406 19.0891 22.125 18.625 22.125H13.375C12.9109 22.125 12.4658 21.9406 12.1376 21.6124C11.8094 21.2842 11.625 20.8391 11.625 20.375V12.5H11.1875C10.9554 12.5 10.7329 12.4078 10.5688 12.2437C10.4047 12.0796 10.3125 11.8571 10.3125 11.625V10.75C10.3125 10.5179 10.4047 10.2954 10.5688 10.1313C10.7329 9.96719 10.9554 9.875 11.1875 9.875H14.25C14.25 9.64294 14.3422 9.42038 14.5063 9.25628C14.6704 9.09219 14.8929 9 15.125 9H16.875C17.1071 9 17.3296 9.09219 17.4937 9.25628C17.6578 9.42038 17.75 9.64294 17.75 9.875H20.8125C21.0446 9.875 21.2671 9.96719 21.4312 10.1313C21.5953 10.2954 21.6875 10.5179 21.6875 10.75V11.625ZM12.6033 12.5L12.5 12.5516V20.375C12.5 20.6071 12.5922 20.8296 12.7563 20.9937C12.9204 21.1578 13.1429 21.25 13.375 21.25H18.625C18.8571 21.25 19.0796 21.1578 19.2437 20.9937C19.4078 20.8296 19.5 20.6071 19.5 20.375V12.5516L19.3967 12.5H12.6033ZM11.1875 11.625V10.75H20.8125V11.625H11.1875Z" fill="#2DB100"/>
</svg>
