<svg width="17" height="16" viewBox="0 0 17 16" fill="none" xmlns="http://www.w3.org/2000/svg">
<path d="M13.196 4.93392C13.448 4.68192 13.5867 4.34725 13.5867 3.99125C13.5867 3.63525 13.448 3.30059 13.196 3.04859L12.1387 1.99125C11.8867 1.73925 11.552 1.60059 11.196 1.60059C10.84 1.60059 10.5053 1.73925 10.254 1.99059L3.16602 9.05659V11.9999H6.10802L13.196 4.93392ZM11.196 2.93392L12.254 3.99059L11.194 5.04659L10.1367 3.98992L11.196 2.93392ZM4.49935 10.6666V9.60992L9.19268 4.93125L10.25 5.98859L5.55735 10.6666H4.49935ZM3.16602 13.3333H13.8327V14.6666H3.16602V13.3333Z" fill="black"/>
</svg>
